# xmcd
# 
# Track frame offsets:
#     150
#     17609
#     34146
#     50864
#     67490
#     83042
#     101228
#     117016
#     135464
#     149989
#     166995
#     183135
# 
# Disc length: 2648
# 
# Revision: 1
# Processed by: cddbd v1.5.2PL0 Copyright (c) Steve Scherf et al.
# Submitted via: BonkEnc v1.0
# 
DISCID=b00a560c
DTITLE=Gian e Giovani - Melhores Momentos
DYEAR=1998
DGENRE=Country
TTITLE0=Olha Amor
TTITLE1=Caçador de Corações
TTITLE2=Nem Dormindo Consigo Te Esquecer
TTITLE3=Sai Dessa Coração
TTITLE4=Meu Coração Só Quer Você
TTITLE5=Faz de Conta (L´italiano)
TTITLE6=De Que Planeta Você Veio
TTITLE7=Cansei de Namorar a Solidão
TTITLE8=Amante Anônimo
TTITLE9=Agora Sei Que Eu Te Amava
TTITLE10=Por que Será?
TTITLE11=Não Dá Prá Te Esquecer
EXTD=
EXTT0=
EXTT1=
EXTT2=
EXTT3=
EXTT4=
EXTT5=
EXTT6=
EXTT7=
EXTT8=
EXTT9=
EXTT10=
EXTT11=
PLAYORDER=
